<?xml version="1.0" encoding="utf-8"?>
<!-- Generator: Adobe Illustrator 26.0.1, SVG Export Plug-In . SVG Version: 6.00 Build 0)  -->
<svg version="1.1" id="Camada_1" xmlns="http://www.w3.org/2000/svg" xmlns:xlink="http://www.w3.org/1999/xlink" x="0px" y="0px"
	 viewBox="0 0 511.8 509.3" style="enable-background:new 0 0 511.8 509.3;" xml:space="preserve" width="26" height="26">
<style type="text/css">
	.st0{fill:#297DB6;}
	.st1{fill:#248CD2;}
	.st2{fill:#45ACF2;}
</style>
<path class="st0" d="M472.9,103.7l-89.1,35.2c-16,11.8-32,23.5-47.9,35.5c-10,7.5-19.7,15.3-29.6,22.9c-14.1,10.7-28.5,21-42.3,32
	c-10.7,8.5-21.9,16.6-32.8,24.8l-82.2,62.4c-24.9,18.9-49.7,37.9-74.6,56.8c-4.2,3.2-8.4,6.5-12.8,9.6c-8.6,6-18.8,5.4-26.6-1.5
	c-9.4-8.4-18.7-17.1-28.1-25.5c-3.2-2.9-4.4-6.9-7-10.1v-10c2.1-6.7,6.8-11.5,12-16c10-8.8,19.6-17.9,29.5-26.8
	C55.2,280.4,69,268,82.7,255.5l68.2-62.3c28.9-26.4,57.7-52.8,86.6-79.2c37.2-33.9,74.4-67.8,111.5-101.7c3.1-2.8,5.9-5.9,9.8-7.6
	c0.8,0.1,1.6-0.1,2-0.9h0v0c11.8-8.5,32.5,6.8,32.5,6.8L472.9,103.7z"/>
<path class="st1" d="M452.9,421.7l-41,54c-23,45-51.3,30.1-51.3,30.1c-3.6-1.1-6.2-3.7-8.9-6.1c-24.8-22.6-49.6-45.3-74.4-68
	c-30.9-28.2-61.9-56.5-92.8-84.7c-10.3-9.4-20.6-18.8-31-28.2c-1.3-1.1-2.2-3.1-4.5-2.4c-1.8-4.3-5.7-6.8-8.8-9.8
	c-10.2-9.5-20.7-18.8-31.1-28.3c-0.8-0.8-1.5-1.8-2.2-2.6c-3.4-1.3-5.3-4.5-8.1-6.5c-5.7-4.2-9.7-10.4-16.2-13.7
	c0.2-1.2-0.5-1.8-1.2-2.5c-10.8-9.8-21.5-19.7-32.3-29.4c-9.1-8.2-18.7-15.9-27.2-24.7c-7.6-7.8-17.6-13.4-22-24.2v-10
	c3.2-9.1,10.9-14.4,17.5-20.5c5.3-5,10.9-9.8,16.3-14.8c9.4-8.6,19.5-9.2,29.8-1.5c27.6,20.9,55.2,41.8,82.7,62.7
	c1.4,1.1,2.6,2.6,4.7,2.6c0.2,1.5,1.2,2.3,2.3,3.1c7,5.2,14.2,10.3,21.1,15.6c15.1,11.6,30.1,23.4,45.3,34.8
	c3.6,2.7,6.6,6.6,11.6,7.3c0.1,2.2,2.2,2.7,3.5,3.8c6.7,5.3,13.5,10.6,20.3,15.8c1,0.6,2,1.2,2.9,1.9c26.7,20.2,53.3,40.5,80,60.6
	c15.2,11.5,30.6,22.9,45.9,34.3L452.9,421.7z"/>
<path class="st2" d="M511.8,77.8v354.9c-1.4,1.2-1.2,3-1.8,4.5c-2.9,7.3-7.1,13.2-14.6,16.8c-30.9,14.8-61.7,29.8-92.5,44.8
	c-8.3,4-16,9.5-25.6,10.3c-5.9,0.6-11.6-0.1-16.7-3.3c1.5,0,3,0,4.5-0.1c10.7-1,18.7-8.1,18.7-18.9c0.2-38.8,0-77.5,0-116.3
	c0-21.1,0-42.3,0.1-63.4c0-26.5,0.1-52.9,0.2-79.4c-0.1-2-0.2-4-0.2-6c0-27.6,0-55.3-0.1-82.9V23.1c0-1.8-0.3-3.6-0.9-5.3
	c-3.8-10.3-11.4-14.5-22-13.9c8.9-5.3,18.2-4.7,27.1-0.5c24.5,11.5,48.8,23.3,73.2,35.1c8.5,4.1,16.9,8.7,25.6,12.2
	C499.5,55.8,508.6,64,511.8,77.8z"/>
<path class="st2" d="M360.9,3.8c-0.4,0.9-1.2,1-2,0.9C359.3,3.9,360,3.8,360.9,3.8z"/>
</svg>
